PathFileType	4	(X/Y/Z)	7_2_25_p1_0-345.trc
DataRate	CameraRate	NumFrames	NumMarkers	Units	OrigDataRate	OrigDataStartFrame	OrigNumFrames
60.0	60.0	6	27	m	60.0	259	346
Frame#	Time	RHip			RKnee			RAnkle			RBigToe			RSmallToe			RHeel			LHip			LKnee			LAnkle			LBigToe			LSmallToe			LHeel			Neck			Head			Nose			RShoulder			RElbow			RWrist			RThumb			RIndex			RPinky			LShoulder			LElbow			LWrist			LThumb			LIndex			LPinky			
		X1	Y1	Z1	X2	Y2	Z2	X3	Y3	Z3	X4	Y4	Z4	X5	Y5	Z5	X6	Y6	Z6	X7	Y7	Z7	X8	Y8	Z8	X9	Y9	Z9	X10	Y10	Z10	X11	Y11	Z11	X12	Y12	Z12	X13	Y13	Z13	X14	Y14	Z14	X15	Y15	Z15	X16	Y16	Z16	X17	Y17	Z17	X18	Y18	Z18	X19	Y19	Z19	X20	Y20	Z20	X21	Y21	Z21	X22	Y22	Z22	X23	Y23	Z23	X24	Y24	Z24	X25	Y25	Z25	X26	Y26	Z26	X27	Y27	Z27	
259	4.316666666666666	0.28392384963687584	0.2901790147060522	1.1278566155811467	0.26338246515787117	0.21130581101300538	1.5465201078545034	0.2767991553059471	0.2640380804573743	2.031793421027515	0.24581234843952302	0.052581252414253515	1.9643340409746277	0.30429690813086974	0.07122230823895725	1.9605296224056141	0.25841693793453324	0.33780861913259214	2.1362618980437533	0.06469000129677381	0.3042033568546887	1.136762386417162	0.0913316846139661	0.26511729837679304	1.5879129273609904	0.1116631212096045	0.2543438704046213	2.0164453475867985	0.11339015620670546	0.05212174759143108	1.971299486801682	0.06428672117729033	0.11190402047074592	1.9950660806168385	0.12657868571614206	0.31204855365248746	2.0949152243642675	0.18429159938374653	0.3532232879088696	0.6178798756765493	0.18741338111398156	0.3457857363085872	0.3947064143289183	0.17981315885238874	0.2820842382812408	0.4987150222457577	0.317932905458071	0.3244284187856274	0.6638877460288012	0.4415505766326472	0.16213729561109985	0.6212198982668127	0.37598940008843296	0.13845548952933226	0.42842196623331424	0.34263047104567723	0.2029085223374372	0.334632773038213	0.36483938387538595	0.15273041487363886	0.3058189512257125	0.4087110510557292	0.11295138161060843	0.30647351604215267	0.03859360744405817	0.35802581543190914	0.6748835322645935	-0.13678223869596567	0.16827273329481907	0.6231698845905981	-0.044012013855394855	0.2036448667213249	0.44824209888908045	0.03678569310998132	0.2351309636639715	0.3709108262967452	0.004994013852613956	0.23256368383476725	0.33454192877577626	-0.0670820278388875	0.17748757069616714	0.3364774587088414
260	4.333333333333333	0.2839795933296897	0.29200575509760845	1.1208553142783433	0.26341491171205283	0.2113322401654955	1.5461951841472288	0.27821630291185095	0.265219329681899	2.038238295926418	0.24248843887185142	0.04276873978892986	1.9573686204375993	0.30420533042229164	0.07096161573833486	1.9605163251854811	0.2635187263755971	0.3391160583904421	2.1381324613823063	0.06412270254240321	0.30363763202652205	1.1322858573611165	0.09141480068744591	0.2650800810834424	1.5874982362024332	0.11169890734862238	0.25428140834462837	2.0165193389056957	0.11329108679276317	0.05221300160346202	1.9711945929546704	0.0629000560692965	0.11371690709748158	1.9862225883128244	0.12595864184470032	0.31414885549289345	2.089931486627985	0.18448162095199896	0.35360619670334914	0.6151370726701936	0.187427833472188	0.3460677661860453	0.3915623237738884	0.1797468686220917	0.2820153449634326	0.498798379697875	0.3146484510950078	0.32275830201616873	0.6665507308352681	0.44079625313298937	0.1628787047720793	0.6173657696050538	0.3758438618113282	0.13876900325704566	0.4251127560952356	0.34203018800304913	0.20255039580168158	0.329511845757655	0.3644339634213247	0.15253862590590017	0.3033393726195744	0.4132589682000392	0.10846883074870813	0.30049558429218	0.041412259780953635	0.36778054531199167	0.6771060516239705	-0.13340500191668997	0.17120096141176355	0.6205368718597529	-0.04756129784565747	0.20165608200756893	0.4413809959261264	0.0362310784143857	0.23704801974171905	0.3552897309912504	-0.00340339000295863	0.21286991292794605	0.32926653803470146	-0.06892154367884445	0.1690862003137033	0.3318204113789878
261	4.35	0.2839844395054202	0.2920807559679615	1.1208286904871512	0.26339319355595164	0.2114458608686783	1.546570779357167	0.27814666948096356	0.2652147044644497	2.0381329624585853	0.24249972871166758	0.04283605302433771	1.9573245525554386	0.30419284505786615	0.07095530806958628	1.9605593664041416	0.26315564446575007	0.3389673049547382	2.137532929372203	0.06412005876259379	0.303651994715606	1.132261574423808	0.09150623192869008	0.2651452555989572	1.5879301199984368	0.11169834591188003	0.2543334988572292	2.0164314346344323	0.11332253915529958	0.05192873981129524	1.9712003514508227	0.06841476655600225	0.10171563135526862	1.9809974718986172	0.12597312631060725	0.3142806241132031	2.089901909115529	0.18440225921388592	0.353389508229305	0.6151010338768724	0.18994101854759668	0.3470783296562899	0.39132485887039825	0.1796981668065472	0.28172083420795213	0.49868948653535855	0.314580545701998	0.32262987789302794	0.6668532947154759	0.44099595579374107	0.1634122968012649	0.617956773978199	0.37635497281554203	0.14007252538742646	0.4254968243778369	0.3418283880547423	0.20386407193832135	0.32350880136580834	0.3649013408138743	0.15161175237281993	0.30469137908393673	0.4131368828998207	0.09111910462240899	0.29716577063541005	0.03875185787735872	0.35775395032976715	0.6746398749736734	-0.13348128733450718	0.17066327984211768	0.6179023559926322	-0.04781047163803027	0.20132059219284704	0.43778875885337715	0.033558307841700316	0.22758213964620566	0.3507738894085615	-0.007559904715996559	0.21076629637441724	0.32835560659772695	-0.07799493261073831	0.16719309108154018	0.3282071450055273
262	4.366666666666666	0.2839380073402723	0.29207298265098625	1.1209233345234204	0.2633724439949264	0.21139916633740613	1.5464218534582763	0.2739815074923961	0.2794121593829319	2.0493987922384296	0.2424168889812734	0.043090707333312536	1.9570078905767994	0.3004017310857019	0.08397161719880594	1.970794717811068	0.25924082788511127	0.3381633100015465	2.137023765573528	0.06460798025403602	0.30405460146081453	1.1370907138388804	0.09118646617446123	0.2669135196979189	1.5842047878432233	0.11167889827076315	0.2544158973249028	2.016454748540472	0.10909592203286636	0.0637524712826707	1.9810866559410618	0.06422786709406973	0.11198834593161676	1.9952355121877663	0.12596915868497427	0.314196690330324	2.0899104038947818	0.18445281791008733	0.35448692349586086	0.6154185787901086	0.18682606603891497	0.34488593664382594	0.38899731784148883	0.17963239362382552	0.28175420016289393	0.49879170455607963	0.314542764964418	0.3224360809524004	0.6668972141074844	0.43752754989209836	0.15547769924203048	0.615898046106364	0.37904679387730666	0.12490656124137042	0.4076824785246705	0.33696677002607217	0.2030151312621034	0.3149024656507042	0.37090824554681084	0.1319875681708115	0.29144264435919437	0.41952115870068835	0.083191922875015	0.2865314059322667	0.03877943983635128	0.35772857602968805	0.6743874512260186	-0.13335854146076276	0.17078285709735094	0.6180692752714744	-0.04800394945392462	0.20208950777296023	0.4347443177867965	0.0332593403300056	0.22844446672041038	0.34706107507208295	-0.009892532769601474	0.20138474901266082	0.32829675730347807	-0.07983624017465993	0.15723312761624794	0.3275622896689267
263	4.383333333333334	0.28353636569299595	0.2919861289238804	1.1246531253092145	0.26342998684509283	0.21157028504247527	1.5463148982828716	0.27403393640578483	0.2794599881810129	2.0493771128931444	0.2424044530738412	0.04281824610258838	1.9569602561317845	0.3003699404235979	0.08369584830873701	1.970829208681727	0.2634078287300462	0.33876354153914606	2.1369734415894697	0.06478068357618948	0.30434462444130694	1.1371988713226648	0.09119616767972727	0.2669479121104004	1.584162536315367	0.11168404956708926	0.25440817931132625	2.0164440206959564	0.11324927625327591	0.052204449649460145	1.9715396825070468	0.0636269394807075	0.11428863002321732	1.9914704535737389	0.1251998917820585	0.3131242024258425	2.0859772653988933	0.18126202472374228	0.3434796471065265	0.6157952555671046	0.18684887878346787	0.3452111109082757	0.38939222168843834	0.1796532003241887	0.2816093170938106	0.498956930828259	0.3145193812185456	0.32241286597984636	0.6672311816499498	0.43689588558489556	0.1551706504340024	0.6129216521841733	0.37907986483322353	0.12449837681939545	0.40764578531160756	0.33220474424872837	0.19960004142604096	0.3100653125313539	0.37754469703106347	0.10334090946353816	0.28558188421739583	0.41785455837182295	0.07788282586268153	0.2855074590599065	0.03866472543449441	0.3570321725516379	0.6774699762034513	-0.1297432851600333	0.17325879648461182	0.6188091173302689	-0.05182428283634701	0.200694178905721	0.4250224033931635	0.02885942494682384	0.2265718711326515	0.3398458378641665	-0.009533793727997748	0.17297709492983354	0.315573258906952	-0.07738058342286014	0.13858038147959112	0.31947292881594735
264	4.4	0.28362621403584004	0.291941559783663	1.1245854905367094	0.2633057212808747	0.21148532010257395	1.546331502339137	0.2783685669663556	0.2653512228688551	2.038302358164101	0.23822163894406811	0.05752713442624336	1.9637075903157795	0.3004659904052889	0.08421293543594388	1.971028594816475	0.2634805089000781	0.338569255115678	2.1367324726686068	0.06486072136635186	0.30442956769357565	1.13745841318812	0.08789260349506083	0.26544728213789853	1.5890195372709714	0.11171868786600399	0.25439509938237087	2.016472048187186	0.10905230319555956	0.06374043303577402	1.9801944733642534	0.06270884658090568	0.11363155972277267	1.986116758359282	0.12596532141545755	0.3137514017361484	2.0902502315283193	0.18125247162552907	0.3435164993845305	0.6152552909781519	0.18652527688567835	0.34377426591353866	0.3911408027200837	0.17638558753953335	0.27172516051086887	0.49704269760346653	0.3102410663964678	0.3209558443670765	0.6638424298771332	0.434933543562303	0.16717279990481998	0.6190715739957336	0.38282528805712684	0.11340427985519366	0.4154348162699064	0.34016748408891123	0.1432833373684425	0.30192732837416464	0.3833952097508419	0.07896548274744124	0.28686698285708756	0.42078027611288005	0.07219571680453013	0.2968505008424451	0.03874239723425525	0.35731863057863783	0.6776413810398298	-0.1298230951691454	0.17350612160686313	0.6185034892854454	-0.05399118273947187	0.19147995235298104	0.4263799722421195	0.023253899180944393	0.2151167751574871	0.33956384878764423	-0.009466399487451557	0.17268159504417405	0.313977714331407	-0.08319075684372122	0.13845865857244197	0.31715479042963507
